<?xml version="1.0" encoding="UTF-8" standalone="no"?>
<!-- Created with Inkscape (http://www.inkscape.org/) -->

<svg
   xmlns:dc="http://purl.org/dc/elements/1.1/"
   xmlns:cc="http://creativecommons.org/ns#"
   xmlns:rdf="http://www.w3.org/1999/02/22-rdf-syntax-ns#"
   xmlns:svg="http://www.w3.org/2000/svg"
   xmlns="http://www.w3.org/2000/svg"
   xmlns:sodipodi="http://sodipodi.sourceforge.net/DTD/sodipodi-0.dtd"
   xmlns:inkscape="http://www.inkscape.org/namespaces/inkscape"
   width="213.50999mm"
   height="30mm"
   viewBox="0 0 213.50999 30"
   version="1.1"
   id="svg8"
   inkscape:version="0.92.3 (2405546, 2018-03-11)"
   sodipodi:docname="curiosum_logo.svg">
  <defs
     id="defs2" />
  <sodipodi:namedview
     id="base"
     pagecolor="#ffffff"
     bordercolor="#666666"
     borderopacity="1.0"
     inkscape:pageopacity="0.0"
     inkscape:pageshadow="2"
     inkscape:zoom="1"
     inkscape:cx="315.82712"
     inkscape:cy="47.531922"
     inkscape:document-units="mm"
     inkscape:current-layer="layer1"
     showgrid="false"
     inkscape:window-width="1920"
     inkscape:window-height="1027"
     inkscape:window-x="-8"
     inkscape:window-y="-8"
     inkscape:window-maximized="1"
     inkscape:snap-page="true"
     inkscape:snap-grids="false"
     inkscape:object-nodes="false"
     inkscape:snap-nodes="true"
     inkscape:snap-bbox="true"
     inkscape:bbox-paths="true"
     inkscape:bbox-nodes="true" />
  <metadata
     id="metadata5">
    <rdf:RDF>
      <cc:Work
         rdf:about="">
        <dc:format>image/svg+xml</dc:format>
        <dc:type
           rdf:resource="http://purl.org/dc/dcmitype/StillImage" />
        <dc:title></dc:title>
      </cc:Work>
    </rdf:RDF>
  </metadata>
  <g
     inkscape:label="Layer 1"
     inkscape:groupmode="layer"
     id="layer1"
     transform="translate(0,-267)">
    <path
       style="fill:#000000;stroke-width:0.99999994"
       d="m 11.929729,295.10685 v -1.89276 h 1.89277 1.89277 v 1.89276 1.89277 h -1.89277 -1.89277 z m 15.420175,-1.94421 3.822992,0.0199 v 1.90851 1.90853 h -1.908514 -1.908514 z m 15.495076,1.94421 v -1.89276 h 3.627808 3.627811 v 1.89276 1.89277 H 46.472788 42.84498 Z m 11.04116,-0.007 v -1.90004 l 11.336906,0.0735 0.05121,3.72639 h -5.69406 -5.69405 z m 22.989275,-1.84613 18.651677,-0.0488 V 295.10248 297 h -9.321863 -9.321865 z m 30.323755,1.8534 v -1.89277 h 14.82671 14.82671 v 1.89277 1.89277 h -14.82671 -14.82671 z m 41.64094,0 v -1.89277 h 24.13284 24.13281 v 1.89277 1.89277 H 172.97295 148.84011 Z M 4.8519821,285.91093 c -2.9984107,-0.44755 -4.18404464,-2.12695 -4.70479794,-6.66414 -0.4124367,-3.59347 0.070238,-7.86944 1.09388534,-9.69079 1.6565922,-2.94751 7.0292562,-3.47281 9.3042485,-0.90973 0.819202,0.92296 1.384411,2.5429 1.384411,3.96786 v 1.0728 l -3.6672423,-0.0513 -0.135877,-1.45143 c -0.160998,-1.71975 -0.7657456,-2.3144 -2.0642751,-2.3144 -1.8698617,0 -2.1768781,0.71489 -2.1768781,6.25756 0,5.27606 0.2149032,6.69651 1.8635712,7.05421 3.005043,0.17439 2.665142,-2.89476 2.769079,-4.46431 0.370684,-0.0131 0.692228,-0.007 1.7554493,0.0486 l 1.813907,0.0945 -0.102019,1.57732 c -0.124085,1.91845 -1.074904,4.02717 -2.1265173,4.71623 -1.091655,0.71527 -3.17526,1.03023 -5.0069385,0.75682 z m 15.0022239,0.0176 c -1.896482,-0.36584 -2.824743,-1.0493 -3.527519,-2.59716 -0.530816,-1.1691 -0.598336,-2.13534 -0.604489,-8.65057 l -0.007,-7.3345 h 1.89277 1.892771 v 7.08303 c 0,4.74124 0.122181,7.35122 0.369544,7.89411 0.638546,1.40146 2.712521,1.43995 3.49084,0.0648 0.267269,-0.47223 0.425182,-2.94232 0.502821,-7.86518 l 0.113184,-7.17676 h 1.705078 1.705076 v 7.34651 c 0,6.99665 -0.03381,7.41266 -0.709789,8.73579 -1.093755,2.14081 -3.712169,3.10015 -6.823357,2.49994 z m 49.962753,0.0403 c -1.893775,-0.28918 -3.237647,-1.23735 -4.028837,-2.84256 -0.638414,-1.29526 -0.703091,-1.89078 -0.703091,-6.47386 0,-4.75295 0.04599,-5.13938 0.788654,-6.62469 0.603688,-1.20736 1.118781,-1.74379 2.19621,-2.28711 2.565497,-1.29369 5.738944,-0.83168 7.489164,1.0903 1.370297,1.50478 1.75744,3.58923 1.622442,8.73552 -0.09686,3.69291 -0.196593,4.32248 -0.901408,5.69117 -1.155022,2.24295 -3.389939,3.18047 -6.463134,2.71123 z m 2.6537,-3.08605 c 1.608039,-1.31888 1.718135,-10.68827 0.146006,-12.42546 -0.704808,-0.7788 -2.383575,-0.76482 -3.099096,0.0259 -1.148996,1.26963 -1.362703,9.65372 -0.299251,11.74021 0.669896,1.31435 2.10024,1.60434 3.252341,0.65942 z m 27.058803,3.05708 c -2.670952,-0.44006 -3.715551,-1.57002 -4.13847,-4.47665 -0.07194,-0.49444 -0.04057,-1.49844 -0.04057,-1.49844 h 1.734656 l 1.856324,0.007 0.0558,0.95374 c 0.0835,1.42728 1.314118,2.45358 2.392708,2.45358 1.15055,0 2.20118,-1.0738 2.20118,-2.1131 0,-1.32548 -0.93244,-2.44687 -2.94491,-3.19253 -0.993688,-0.3682 -2.324378,-1.0083 -2.957068,-1.42246 -2.227003,-1.45773 -2.756191,-5.02082 -1.109112,-7.46767 1.006932,-1.49586 2.203212,-1.99476 4.78316,-1.99476 1.33718,0 2.57689,0.18666 3.14284,0.4732 1.25142,0.6336 2.37773,2.37416 2.37773,3.67447 v 1.05746 h -1.73505 c -1.45232,0 -1.73503,-0.0914 -1.73503,-0.56073 0,-1.06941 -0.91929,-1.96297 -2.01949,-1.96297 -1.27522,0 -2.081508,0.81951 -2.081508,2.11558 0,1.20922 0.34928,1.5012 3.884498,3.24728 3.47098,1.71435 4.32107,2.7345 4.31057,5.17289 -0.0107,2.40084 -0.88857,4.06236 -2.55986,4.84295 -1.70368,0.79574 -3.43957,1.01718 -5.418378,0.69117 z m 41.812038,0.0311 c -1.61025,-0.25608 -2.84414,-1.11326 -3.6954,-2.56718 -0.56618,-0.96698 -0.63756,-1.7863 -0.74602,-8.56335 l -0.11991,-7.49409 h 1.91277 1.91275 l 0.0951,7.44172 c 0.0944,7.38731 0.10049,7.44614 0.83981,8.04428 1.03815,0.83994 2.08551,0.75619 2.86018,-0.22866 0.61816,-0.78586 0.65383,-1.22467 0.65383,-8.04426 v -7.21308 h 1.89276 1.89277 l -0.007,6.70358 c -0.003,3.68695 -0.13667,7.26039 -0.29453,7.94098 -0.71613,3.08776 -3.41655,4.58123 -7.19657,3.98008 z m -110.168605,-9.4763 v -9.14838 l 4.022136,0.0177 c 2.245341,0.009 4.50506,0.18415 5.115329,0.39434 1.617825,0.55722 2.535693,2.11275 2.529968,4.28757 -0.0055,2.0909 -0.447817,3.09288 -1.753849,3.97302 l -0.960657,0.64737 0.96525,0.46622 c 1.210215,0.5845 1.712332,1.96792 1.736102,4.78326 0.0098,1.15985 0.158816,2.4797 0.331162,2.93301 l 0.313354,0.82419 -1.969527,-0.0938 -1.969534,-0.0939 -0.252209,-2.83916 c -0.350142,-3.94157 -0.617638,-4.39255 -2.676165,-4.51181 l -1.645819,-0.0954 v 3.80205 3.80203 h -1.89277 -1.892771 z m 7.401558,-1.8985 c 0.827066,-0.82705 0.845779,-2.85825 0.03461,-3.75461 -0.445742,-0.49253 -0.974854,-0.65613 -2.122201,-0.65613 h -1.528417 v 2.72432 2.54307 c 1.186009,-0.003 2.729562,-0.0195 3.616017,-0.85665 z m 11.841607,1.8985 v -9.14838 h 1.73504 1.73504 v 9.14838 9.14841 H 52.1511 50.41606 Z m 146.6897,-0.0122 v -9.16068 l 2.74157,0.0912 2.74156,0.0912 1.26803,6.22714 c 0.69741,3.42492 1.35856,6.12212 1.46925,5.99377 0.11065,-0.12837 0.74528,-2.96606 1.41022,-6.30602 l 1.20902,-6.07263 h 2.78219 2.78218 v 9.14839 9.1484 h -1.73504 -1.73504 l -0.0284,-7.17676 -0.0283,-7.17676 -1.61062,7.17676 -1.61063,7.17676 h -1.48726 -1.48727 l -0.63068,-2.76031 c -0.34686,-1.51814 -1.03388,-4.60574 -1.52671,-6.86129 l -0.89597,-4.10101 -0.0849,6.86132 -0.0849,6.86129 h -1.7289 -1.72889 v -9.16068 z"
       id="path4683"
       inkscape:connector-curvature="0"
       sodipodi:nodetypes="ccccccccccccccccccccccccccccccccccccccccccccccccccccccccccsscsccsssccccccccccccccsccscccsccccsssccssccccscccscccsssccsscscsssssccccccccccccsccccccccccccccccccccscccccccccscccccccccccccccccscccccccccccccccsccccccccc" />
  </g>
</svg>
