<?xml version="1.0" encoding="UTF-8" standalone="no"?>
<!-- Generator: Adobe Illustrator 23.0.0, SVG Export Plug-In . SVG Version: 6.00 Build 0)  -->

<svg
   xmlns:dc="http://purl.org/dc/elements/1.1/"
   xmlns:cc="http://creativecommons.org/ns#"
   xmlns:rdf="http://www.w3.org/1999/02/22-rdf-syntax-ns#"
   xmlns:svg="http://www.w3.org/2000/svg"
   xmlns="http://www.w3.org/2000/svg"
   xmlns:sodipodi="http://sodipodi.sourceforge.net/DTD/sodipodi-0.dtd"
   xmlns:inkscape="http://www.inkscape.org/namespaces/inkscape"
   version="1.1"
   x="0px"
   y="0px"
   viewBox="0 0 589.76 191.24"
   style="enable-background:new 0 0 589.76 191.24;"
   xml:space="preserve"
   id="svg54"
   sodipodi:docname="once_upon_logo_inverted.svg"
   inkscape:version="0.92.3 (2405546, 2018-03-11)"><metadata
   id="metadata60"><rdf:RDF><cc:Work
       rdf:about=""><dc:format>image/svg+xml</dc:format><dc:type
         rdf:resource="http://purl.org/dc/dcmitype/StillImage" /><dc:title /></cc:Work></rdf:RDF></metadata><defs
   id="defs58" /><sodipodi:namedview
   pagecolor="#ffffff"
   bordercolor="#666666"
   borderopacity="1"
   objecttolerance="10"
   gridtolerance="10"
   guidetolerance="10"
   inkscape:pageopacity="0"
   inkscape:pageshadow="2"
   inkscape:window-width="1920"
   inkscape:window-height="1027"
   id="namedview56"
   showgrid="false"
   inkscape:zoom="1.1936994"
   inkscape:cx="286.89302"
   inkscape:cy="11.382689"
   inkscape:window-x="-8"
   inkscape:window-y="-8"
   inkscape:window-maximized="1"
   inkscape:current-layer="New_Logo" />
<style
   type="text/css"
   id="style2">
	.st0{display:none;opacity:0.49;}
	.st1{display:inline;fill:#525252;}
	.st2{display:none;}
	.st3{fill:#525252;}
	.st4{opacity:0.32;fill:#525252;}
	.st5{display:inline;}
	.st6{fill:#46505A;}
</style>
<g
   id="O_1_"
   class="st0">
	<path
   id="O"
   class="st1"
   d="M48.61,0C38.8,0,32.83,6.42,27.63,12.13c-0.26,0.29-0.48,0.61-0.73,0.9c0.21-1.12-0.17-2.29-1.12-3.05   c-1.31-1.05-3.21-0.9-4.33,0.36C15.77,16.74,0.16,36.9,0,65.67c-0.19,33.62,16.49,67.77,45.22,67.6   c34.58-0.2,54.42-53.49,41.21-94.71C79.46,16.79,63.62,0,48.61,0z M45.42,124.7c-21.91,0-33.33-27.79-33.66-56.16   c-0.15-13.05,2.29-25.69,5.83-36.08c-0.47,1.6-0.92,3.17-1.34,4.67c-2.24,8.12-2.02,16.97-1.07,22.07c0.44,2.36,2.76,4.2,5.16,4.09   c2.62-0.11,4.66-2.29,4.6-4.91c-0.17-6.83,0.11-18.07,2.39-25.71C29.77,24.6,37.65,8.37,48.76,8.37   c17.06,0,28.51,25.88,29.73,50.72C80.01,90.41,69.49,124.7,45.42,124.7z" />
</g>
<g
   id="n_2_"
   class="st0">
	<path
   id="n_5_"
   class="st1"
   d="M159.33,103.91c-0.88,0.16-1.66,0.71-1.92,1.6c-1.64,5.68-7.49,18.52-13.39,18.59   c-3.15,0.04-8.22-6.97-8.07-22.99c0.06-7.24-0.11-14.48,3.59-23.37c1.47-3.52,1.58-8.05-1.69-10.01v0   c-3.48-2.07-7.45-1.17-9.72,2.19c-4.31,6.37-13.82,26.66-13.82,26.66s-1.07-16.7-0.44-28.15c0.21-3.81-3.02-6.93-6.83-6.65   l-0.12,0.01c-2.91,0.21-5.26,2.39-5.64,5.25c-0.49,3.63-0.91,11.44-0.59,20.08c0.46,12.24-0.38,31.06-0.87,40.43   c-0.16,3.12,2.32,5.72,5.44,5.72c2.59,0,4.82-1.81,5.33-4.35c1.64-8.12,5.05-26.44,14.19-42.71c0,0-2.05,15.98,0.46,27.7   c1.88,8.82,7.29,19.36,16.92,19.36c10.32,0,15.98-12.43,18.81-20.79C164.23,102.98,159.33,103.91,159.33,103.91z" />
</g>
<g
   id="c_2_"
   class="st0">
	<path
   id="c_1_"
   class="st1"
   d="M211.09,102.08c-1.23,0-2.26,1.1-2.73,2.34c-2.43,6.41-7.08,19-20.91,19   c-15.89,0-18.64-22.89-16.18-32.67c2.47-9.83,6.9-24.3,13.39-24.3c1.75,0,2.37,1.96,2.5,4.17c0.2,3.16-0.65,6.3-2.14,9.09   c-0.67,1.26-1.43,2.77-2.03,4.23c-0.84,2.05-1.12,4.28-0.93,6.48l0,0.01c0.45,2.43,1.72,4.23,4.16,4.74   c4.72,0.96,8.22-4.01,9.23-9.27l0.73-4.63c0.6-3.8,0.55-7.71-0.46-11.41c-1.56-5.7-5.06-10.62-11.48-10.76c0,0-4.64-0.36-9.47,3.37   c-5.13,3.97-13.83,14.71-15.32,33.05c-0.13,1.57-0.17,3.11-0.15,4.63c0.03,2.09,0.29,4.17,0.68,6.23l0.52,2.75   c0.71,3.14,1.64,6.06,2.87,9.02c3.86,9.31,12.3,15.02,22.29,15.02c14.24,0,23.37-12.4,26.44-20.61   C212.11,112.57,216.72,102.08,211.09,102.08z" />
</g>
<g
   id="e_1_"
   class="st0">
	<path
   id="e_2_"
   class="st1"
   d="M259.07,102.97c-1.21-0.3-2.46,0.35-2.91,1.51c-1.15,2.98-3.54,8.95-7.04,13.4   c-2.79,3.54-7.57,6.32-11.53,6.02c-10.5-0.78-15.23-12.11-15-20.67c0,0,7.4,0.63,11.76-3.65c4.35-4.27,7.71-11.86,8.14-17.54   c1.8-23.79-10.94-23.04-10.94-23.04s-17.12-0.24-20.34,36.56c-0.14,1.62-0.23,3.17-0.27,4.66c-0.03,1.3,0.04,2.59,0.16,3.89   l0.54,5.57c0.27,2.76,0.79,5.5,1.77,8.1c5.61,14.96,18.72,15.4,18.72,15.4s9.3,1.09,16.75-4.77c5.38-4.23,10.85-11.15,12.04-22.64   C261.08,104.5,260.33,103.28,259.07,102.97z M224.35,83.38c0.85-5.51,2.63-10.25,4.34-13.63c1.07-2.11,3.74-1.46,4.45,0.8   c0.75,2.38,0.4,6.3,0.08,10.62c-0.79,10.8-5.68,15.6-8.65,15.09C221.62,95.75,222.99,92.22,224.35,83.38z" />
</g>
<g
   id="U_1_"
   class="st0">
	<path
   id="U"
   class="st1"
   d="M413.45,97.91c-1.58-0.1-3.18,0.75-3.87,2.39c-1.57,3.74-3.99,9.6-6.69,13.84   c-3.17,4.98-6.78,8.09-10.57,8.09c-9.96,0-19.01-37.49-11.72-72.81c4.23-20.51,6.69-34,8-41.55c0.68-3.95-2.36-7.55-6.37-7.55   c-3.3,0-5.77,2.52-6.42,5.76c-2.48,12.23-6.1,42.07-10.07,68.32c-2.08,13.76-6.8,25.64-11.54,34.42   c-4.75,8.78-9.52,14.45-15.26,14.42c-13.89-0.07-14.43-32.38-9.66-62.64c2.82-17.86,9-34.86,11.3-44.5c1-4.2-1.9-8.32-6.2-8.81   c-3.69-0.42-7.1,2.03-7.86,5.67c-2.8,13.44-11.09,47.43-11.11,77.92c-0.01,24.21,7.5,42.06,21.8,42.06   c12.29,0,16.11-6.23,21.12-13.01c5.1-6.89,10.48-22.01,10.48-22.01s2.15,15.97,9.34,26.03c3.08,4.31,7.59,7.31,12.41,7.88   c3.83,0.46,9.81-0.12,16.7-9.39c0.79-1.06,1.55-2.23,2.29-3.45C423.47,98.8,413.45,97.91,413.45,97.91z" />
</g>
<g
   id="p_1_"
   class="st0">
	<path
   id="p_2_"
   class="st1"
   d="M474.46,104.68c-0.84,0.27-1.56,0.88-1.89,1.8c-3,8.38-12.95,26.3-34.43,20.61   c0,0,14.93-10.52,19.63-29.31c0,0,2.98-9.52,1.34-17.94c-1.18-6.03-6.52-14.86-13.28-14.86c-14.01,0-18.12,14.09-18.12,14.09   l1.3-18.77c0.03-2.12-0.94-4.23-2.76-5.3c-0.9-0.53-1.95-0.83-3.06-0.83c-2.98,0-5.43,2.18-5.95,5.12   c-1.07,5.95-1.55,19.68-1.72,25.94c-0.05,1.91-0.27,3.81-0.65,5.69c-0.34,1.68-0.8,3.96-1.33,6.67l-3.9,21.09   c-2.43,13.96-4.68,29.02-4.69,36.71c-0.02,19.25,3.58,36.02,11.01,35.84c4.08-0.09,6.32-2.97,7.51-5.55   c0.84-1.82,1.84-5.83,2.13-7.89c0,0,1.93-10.96,0.79-30.13l-0.18-16.15l5.08,1.72c0.93,0.31,1.88,0.55,2.84,0.71   c2.97,0.5,10.05,1.78,17.3,0.71c9.57-1.41,19.93-6.44,24.96-19.43C481,103.31,474.46,104.68,474.46,104.68z M418.02,178.09   c-6.95-13.53-0.48-51.63-0.48-51.63s1.35,27.29,1.68,37.9C419.56,174.97,418.02,178.09,418.02,178.09z M426.19,124.9l-0.8-29.28   c4.03-15.7,19.37-28.5,22.64-9.06c1.88,11.21-6.75,25.32-13.48,32.65C429.61,124.6,426.19,124.9,426.19,124.9z" />
</g>
<g
   id="Layer_9"
   class="st0">
</g>
<g
   id="o_1_"
   class="st0">
	<path
   id="o"
   class="st1"
   d="M535.3,84.33c-1.73-0.97-3.92-0.33-5.09,1.27c-1.76,2.39-3.94,4.88-6.33,6.47   c-3.9,2.61-8.36,2.76-10.12,2.7c-0.05-14.75-3.44-36.18-18.39-36.18c0,0-21.24,3.28-21.24,37.03c0,3.31,0.15,6.31,0.42,9.06   l1.93,10.55c4.47,15.52,14.09,17.4,17.76,17.4c4.73,0,10.27-4.26,14.66-12.43c2.95-5.49,4.19-11.04,4.64-17.62   c0.14,0,0.27,0.01,0.43,0.01c8.01,0,14.29-2.92,17.68-4.92c0,0,5.76-2.84,5.76-8.98C537.39,86.24,536.44,84.97,535.3,84.33z    M494.04,122.52c-6.8,0-8.97-16.63-8.97-28.87c0-16.27,7.06-26.71,12.16-26.71c5.1,0,6.57,9.76,6.57,9.76s-6.57,1.38-6.57,11.16   c0,9.78,7.77,13.15,7.77,13.15C504.99,106.38,500.83,122.52,494.04,122.52z" />
</g>
<g
   id="n_3_"
   class="st2">
	<path
   id="n_4_"
   class="st3"
   d="M589.76,103.91c-0.88,0.16-1.66,0.71-1.92,1.6c-1.64,5.68-7.49,18.52-13.39,18.59   c-3.15,0.04-8.22-6.97-8.07-22.99c0.06-7.24-0.11-14.48,3.59-23.37c1.47-3.52,1.58-8.05-1.69-10.01v0   c-3.48-2.07-7.45-1.17-9.72,2.19c-4.31,6.37-13.82,26.66-13.82,26.66s-1.07-16.7-0.44-28.15c0.21-3.81-3.02-6.93-6.83-6.65   l-0.11,0.01c-2.91,0.21-5.26,2.39-5.64,5.25c-0.49,3.63-0.91,11.44-0.59,20.08c0.46,12.24-0.38,31.06-0.87,40.43   c-0.16,3.12,2.32,5.72,5.44,5.72c2.59,0,4.82-1.81,5.33-4.35c1.64-8.12,5.05-26.44,14.19-42.71c0,0-2.05,15.98,0.46,27.7   c1.88,8.82,7.29,19.36,16.92,19.36c10.32,0,15.98-12.43,18.81-20.79C594.66,102.98,589.76,103.91,589.76,103.91z" />
	<path
   id="O_2_"
   class="st1"
   d="M48.61,0C38.8,0,32.83,6.42,27.63,12.13c-0.26,0.29-0.48,0.61-0.73,0.9   c0.21-1.12-0.17-2.29-1.12-3.05c-1.31-1.05-3.21-0.9-4.33,0.36C15.77,16.74,0.16,36.9,0,65.67c-0.19,33.62,16.49,67.77,45.22,67.6   c34.58-0.2,54.42-53.49,41.21-94.71C79.46,16.79,63.62,0,48.61,0z M45.42,124.7c-21.91,0-33.33-27.79-33.66-56.16   c-0.15-13.05,2.29-25.69,5.83-36.08c-0.47,1.6-0.92,3.17-1.34,4.67c-2.24,8.12-2.02,16.97-1.07,22.07c0.44,2.36,2.76,4.2,5.16,4.09   c2.62-0.11,4.66-2.29,4.6-4.91c-0.17-6.83,0.11-18.07,2.39-25.71C29.77,24.6,37.65,8.37,48.76,8.37   c17.06,0,28.51,25.88,29.73,50.72C80.01,90.41,69.49,124.7,45.42,124.7z" />
	<path
   id="n_6_"
   class="st1"
   d="M166.01,91.06c-0.42,0.07-5.5-3.7-6.05,0.08c-0.79,5.42-2.33,12.42-3.27,15.67   c-1.27,4.41-6.78,17.22-12.68,17.29c-3.15,0.04-8.22-6.97-8.07-22.99c0.06-7.24-0.11-14.48,3.59-23.37   c1.47-3.52,1.58-8.05-1.69-10.01v0c-3.48-2.07-7.45-1.17-9.72,2.19c-4.31,6.37-13.82,26.66-13.82,26.66s-1.07-16.7-0.44-28.15   c0.21-3.81-3.02-6.93-6.83-6.65l-0.12,0.01c-2.91,0.21-5.26,2.39-5.64,5.25c-0.49,3.63-0.91,11.44-0.59,20.08   c0.46,12.24-0.38,31.06-0.87,40.43c-0.16,3.12,2.32,5.72,5.44,5.72c2.59,0,4.82-1.81,5.33-4.35c1.64-8.12,5.05-26.44,14.19-42.71   c0,0-2.05,15.98,0.46,27.7c1.88,8.82,7.29,19.36,16.92,19.36c10.32,0,15.98-12.43,18.81-20.79   C164.23,102.98,166.01,91.06,166.01,91.06z" />
	<path
   id="n_7_"
   class="st4"
   d="M217.71,91.06c-0.42,0.07-5.5-3.7-6.05,0.08c-0.79,5.42-2.33,12.42-3.27,15.67   c-1.27,4.41-6.78,17.22-12.68,17.29c-3.15,0.04-8.22-6.97-8.07-22.99c0.06-7.24-0.11-14.48,3.59-23.37   c1.47-3.52,1.58-8.05-1.69-10.01v0c-3.48-2.07-7.45-1.17-9.72,2.19C175.52,76.3,166,96.59,166,96.59s-1.07-16.7-0.44-28.15   c0.21-3.81-3.02-6.93-6.83-6.65l-0.12,0.01c-2.91,0.21-5.26,2.39-5.64,5.25c-0.49,3.63-0.91,11.44-0.59,20.08   c0.46,12.24-0.38,31.06-0.87,40.43c-0.16,3.12,2.32,5.72,5.44,5.72c2.59,0,4.82-1.81,5.33-4.35c1.64-8.12,5.05-26.44,14.19-42.71   c0,0-2.05,15.98,0.46,27.7c1.88,8.82,7.29,19.36,16.92,19.36c10.32,0,15.98-12.43,18.81-20.79   C215.93,102.98,217.71,91.06,217.71,91.06z" />
	<path
   id="c_OLD"
   class="st3"
   d="M215.39,87.68c-0.39,0-2.56-3.76-2.92-1.46c-1.42,9.13-2.75,13.71-4.11,18.19   c-2.43,6.41-7.08,19-20.91,19c-15.89,0-18.64-22.89-16.18-32.67c2.47-9.83,6.9-24.3,13.39-24.3c1.75,0,2.37,1.96,2.5,4.17   c0.2,3.16-0.65,6.3-2.14,9.09c-0.67,1.26-1.43,2.77-2.03,4.23c-0.84,2.05-1.12,4.28-0.93,6.48l0,0.01   c0.45,2.43,1.72,4.23,4.16,4.74c4.72,0.96,8.22-4.01,9.23-9.27l0.73-4.63c0.6-3.8,0.55-7.71-0.46-11.41   c-1.56-5.7-5.06-10.62-11.48-10.76c0,0-4.64-0.36-9.47,3.37c-5.13,3.97-13.83,14.71-15.32,33.05c-0.13,1.57-0.17,3.11-0.15,4.63   c0.03,2.09,0.29,4.17,0.68,6.23l0.52,2.75c0.71,3.14,1.64,6.06,2.87,9.02c3.86,9.31,12.3,15.02,22.29,15.02   c14.24,0,23.37-12.4,26.44-20.61C212.11,112.57,221.02,87.68,215.39,87.68z" />
	<g
   id="c_NEW"
   class="st5">
		<path
   id="c_5_"
   class="st3"
   d="M216.11,89.53c-0.39,0-3.15-6.7-4.1-0.67c-1.1,7.02-2.69,12.64-3.66,15.7    c-2.43,6.41-7.06,18.86-20.9,18.86c-15.89,0-18.64-22.89-16.18-32.67c2.47-9.83,6.9-24.3,13.39-24.3c1.75,0,2.37,1.96,2.5,4.17    c0.2,3.16-0.65,6.3-2.14,9.09c-0.67,1.26-1.43,2.77-2.03,4.23c-0.84,2.05-1.12,4.28-0.93,6.48l0,0.01    c0.45,2.43,1.72,4.23,4.16,4.74c4.72,0.96,8.22-4.01,9.23-9.27l0.73-4.63c0.6-3.8,0.55-7.71-0.46-11.41    c-1.56-5.7-5.06-10.62-11.48-10.76c0,0-4.64-0.36-9.47,3.37c-5.13,3.97-13.83,14.71-15.32,33.05c-0.13,1.57-0.17,3.11-0.15,4.63    c0.03,2.09,0.29,4.17,0.68,6.23l0.52,2.75c0.71,3.14,1.64,6.06,2.87,9.02c3.86,9.31,12.3,15.02,22.29,15.02    c14.24,0,23.37-12.4,26.44-20.61c0,0,1.76-4.01,1.78-7.07C213.89,103.61,218.25,89.53,216.11,89.53z" />
	</g>
	<path
   id="e_3_"
   class="st1"
   d="M259.07,102.97c-1.21-0.3-2.46,0.35-2.91,1.51c-1.15,2.98-3.54,8.95-7.04,13.4   c-2.79,3.54-7.57,6.32-11.53,6.02c-10.5-0.78-15.23-12.11-15-20.67c0,0,7.4,0.63,11.76-3.65c4.35-4.27,7.71-11.86,8.14-17.54   c1.8-23.79-10.94-23.04-10.94-23.04s-17.12-0.24-20.34,36.56c-0.14,1.62-0.23,3.17-0.27,4.66c-0.03,1.3,0.04,2.59,0.16,3.89   l0.54,5.57c0.27,2.76,0.79,5.5,1.77,8.1c5.61,14.96,18.72,15.4,18.72,15.4s9.3,1.09,16.75-4.77c5.38-4.23,10.85-11.15,12.04-22.64   C261.08,104.5,260.33,103.28,259.07,102.97z M224.35,83.38c0.85-5.51,2.63-10.25,4.34-13.63c1.07-2.11,3.74-1.46,4.45,0.8   c0.75,2.38,0.4,6.3,0.08,10.62c-0.79,10.8-5.68,15.6-8.65,15.09C221.62,95.75,222.99,92.22,224.35,83.38z" />
	<path
   id="U_2_"
   class="st3"
   d="M422.89,82c-0.35-0.02-6.48-14.26-6.62-11.94c-0.33,5.25-1.19,12.72-1.67,15.42   c-1,5.67-2.76,11.11-3.92,14c-1.83,4.58-5.09,10.42-7.8,14.67c-3.17,4.98-6.78,8.09-10.57,8.09c-9.96,0-19.01-37.49-11.72-72.81   c4.23-20.51,6.69-34,8-41.55c0.68-3.95-2.36-7.55-6.37-7.55c-3.3,0-5.77,2.52-6.42,5.76c-2.48,12.23-6.1,42.07-10.07,68.32   c-2.08,13.76-6.8,25.64-11.54,34.42c-4.75,8.78-9.52,14.45-15.26,14.42c-13.89-0.07-14.43-32.38-9.66-62.64   c2.82-17.86,9-34.86,11.3-44.5c1-4.2-1.9-8.32-6.2-8.81c-3.69-0.42-7.1,2.03-7.86,5.67c-2.8,13.44-11.09,47.43-11.11,77.92   c-0.01,24.21,7.5,42.06,21.8,42.06c12.29,0,16.11-6.23,21.12-13.01c5.1-6.89,10.48-22.01,10.48-22.01s2.15,15.97,9.34,26.03   c3.08,4.31,7.59,7.31,12.41,7.88c3.83,0.46,9.81-0.12,16.7-9.39c0.79-1.06,1.55-2.23,2.29-3.45C423.47,98.8,422.89,82,422.89,82z" />
	<g
   id="U_copy">
		<path
   id="U_4_"
   class="st1"
   d="M423.85,77.39c-0.63-0.04-7.09-7.51-8.07,0.04c-1.51,11.62-5.79,21.88-6.2,22.86    c-1.57,3.74-3.99,9.6-6.69,13.84c-3.17,4.98-6.78,8.09-10.57,8.09c-9.96,0-19.01-37.49-11.72-72.81c4.23-20.51,6.69-34,8-41.55    c0.68-3.95-2.36-7.55-6.37-7.55c-3.3,0-5.77,2.52-6.42,5.76c-2.48,12.23-6.1,42.07-10.07,68.32c-2.08,13.76-6.8,25.64-11.54,34.42    c-4.75,8.78-9.52,14.45-15.26,14.42c-13.89-0.07-14.43-32.38-9.66-62.64c2.82-17.86,9-34.86,11.3-44.5c1-4.2-1.9-8.32-6.2-8.81    c-3.69-0.42-7.1,2.03-7.86,5.67c-2.8,13.44-11.09,47.43-11.11,77.92c-0.01,24.21,7.5,42.06,21.8,42.06    c12.29,0,16.11-6.23,21.12-13.01c5.1-6.89,10.48-22.01,10.48-22.01s2.15,15.97,9.34,26.03c3.08,4.31,7.59,7.31,12.41,7.88    c3.83,0.46,9.81-0.12,16.7-9.39c0.79-1.06,1.55-2.23,2.29-3.45c4.35-6.31,6.36-10.74,7.07-13.84    C418.18,98.33,423.85,77.39,423.85,77.39z" />
	</g>
	<g
   id="U_copy_2"
   class="st5">
		<path
   id="U_5_"
   class="st3"
   d="M417.97,86.93c-0.67-0.04-4.46-6.46-5.28-0.3c-0.85,6.39-2.3,11.55-3.12,13.66    c-1.45,3.78-3.99,9.6-6.69,13.84c-3.17,4.98-6.78,8.09-10.57,8.09c-9.96,0-19.01-37.49-11.72-72.81c4.23-20.51,6.69-34,8-41.55    c0.68-3.95-2.36-7.55-6.37-7.55c-3.3,0-5.77,2.52-6.42,5.76c-2.48,12.23-6.1,42.07-10.07,68.32c-2.08,13.76-6.8,25.64-11.54,34.42    c-4.75,8.78-9.52,14.45-15.26,14.42c-13.89-0.07-14.43-32.38-9.66-62.64c2.82-17.86,9-34.86,11.3-44.5c1-4.2-1.9-8.32-6.2-8.81    c-3.69-0.42-7.1,2.03-7.86,5.67c-2.8,13.44-11.09,47.43-11.11,77.92c-0.01,24.21,7.5,42.06,21.8,42.06    c12.29,0,16.11-6.23,21.12-13.01c5.1-6.89,10.48-22.01,10.48-22.01s2.15,15.97,9.34,26.03c3.08,4.31,7.59,7.31,12.41,7.88    c3.83,0.46,9.81-0.12,16.7-9.39c0.79-1.06,1.55-2.23,2.29-3.45c2.91-4.22,4.78-7.6,5.9-10.31    C419.72,98.47,417.97,86.93,417.97,86.93z" />
	</g>
	<path
   id="p_3_"
   class="st3"
   d="M479.57,89.18c-0.39,0.12-5.21-1.4-5.38,2.75c-0.25,6.12-1.06,12.08-2.06,15   c-2.9,8.42-12.52,25.85-33.99,20.16c0,0,14.93-10.52,19.63-29.31c0,0,2.98-9.52,1.34-17.94c-1.18-6.03-6.52-14.86-13.28-14.86   c-14.01,0-18.12,14.09-18.12,14.09l1.3-18.77c0.03-2.12-0.94-4.23-2.76-5.3c-0.9-0.53-1.95-0.83-3.06-0.83   c-2.98,0-5.43,2.18-5.95,5.12c-1.07,5.95-1.55,19.68-1.72,25.94c-0.05,1.91-0.27,3.81-0.65,5.69c-0.34,1.68-0.8,3.96-1.33,6.67   l-3.9,21.09c-2.43,13.96-4.68,29.02-4.69,36.71c-0.02,19.25,3.58,36.02,11.01,35.84c4.08-0.09,6.32-2.97,7.51-5.55   c0.84-1.82,1.84-5.83,2.13-7.89c0,0,1.93-10.96,0.79-30.13l-0.18-16.15l5.08,1.72c0.93,0.31,1.88,0.55,2.84,0.71   c2.97,0.5,10.05,1.78,17.3,0.71c9.57-1.41,19.93-6.44,24.96-19.43C481,103.31,479.57,89.18,479.57,89.18z M418.02,178.09   c-6.95-13.53-0.48-51.63-0.48-51.63s1.35,27.29,1.68,37.9C419.56,174.97,418.02,178.09,418.02,178.09z M426.19,124.9l-0.8-29.28   c4.03-15.7,19.37-28.5,22.64-9.06c1.88,11.21-6.75,25.32-13.48,32.65C429.61,124.6,426.19,124.9,426.19,124.9z" />
	<path
   id="o_2_"
   class="st3"
   d="M535.3,84.33c-0.95-0.53-4.12-7.21-4.16-6.18c-0.16,3.94-0.75,6.88-1.53,8.34   c-1.39,2.62-3.34,3.98-5.73,5.58c-3.9,2.61-8.36,2.76-10.12,2.7c-0.05-14.75-3.44-36.18-18.39-36.18c0,0-21.24,3.28-21.24,37.03   c0,3.31,0.15,6.31,0.42,9.06l1.93,10.55c4.47,15.52,14.09,17.4,17.76,17.4c4.73,0,10.27-4.26,14.66-12.43   c2.95-5.49,4.19-11.04,4.64-17.62c0.14,0,0.27,0.01,0.43,0.01c8.01,0,14.29-2.92,17.68-4.92c0,0,5.76-2.84,5.76-8.98   C537.39,86.24,536.44,84.97,535.3,84.33z M494.04,122.52c-6.8,0-8.97-16.63-8.97-28.87c0-16.27,7.06-26.71,12.16-26.71   c5.1,0,6.57,9.76,6.57,9.76s-6.57,1.38-6.57,11.16c0,9.78,7.77,13.15,7.77,13.15C504.99,106.38,500.83,122.52,494.04,122.52z" />
	<path
   id="n_1_"
   class="st3"
   d="M589.76,103.91c-0.88,0.16-1.66,0.71-1.92,1.6c-1.64,5.68-7.49,18.52-13.39,18.59   c-3.15,0.04-8.22-6.97-8.07-22.99c0.06-7.24-0.11-14.48,3.59-23.37c1.47-3.52,1.58-8.05-1.69-10.01v0   c-3.48-2.07-7.45-1.17-9.72,2.19c-4.31,6.37-13.82,26.66-13.82,26.66s-1.07-16.7-0.44-28.15c0.21-3.81-3.02-6.93-6.83-6.65   l-0.11,0.01c-2.91,0.21-5.26,2.39-5.64,5.25c-0.49,3.63-0.91,11.44-0.59,20.08c0.46,12.24-0.38,31.06-0.87,40.43   c-0.16,3.12,2.32,5.72,5.44,5.72c2.59,0,4.82-1.81,5.33-4.35c1.64-8.12,5.05-26.44,14.19-42.71c0,0-2.05,15.98,0.46,27.7   c1.88,8.82,7.29,19.36,16.92,19.36c10.32,0,15.98-12.43,18.81-20.79C594.66,102.98,589.76,103.91,589.76,103.91z" />
	<g
   id="p_copy"
   class="st5">
		<path
   id="p_5_"
   class="st3"
   d="M471.4,93.77c-0.02,5.59-1.48,11.43-1.72,12.38c-2.08,8.17-12.81,26.64-34.29,20.95    c0,0,14.93-10.52,19.63-29.31c0,0,2.98-9.52,1.34-17.94c-1.18-6.03-6.52-14.86-13.28-14.86c-14.01,0-18.12,14.09-18.12,14.09    l1.3-18.77c0.03-2.12-0.94-4.23-2.76-5.3c-0.9-0.53-1.95-0.83-3.06-0.83c-2.98,0-5.43,2.18-5.95,5.12    c-1.07,5.95-1.55,19.68-1.72,25.94c-0.05,1.91-0.27,3.81-0.65,5.69c-0.34,1.68-0.8,3.96-1.33,6.67l-3.9,21.09    c-2.43,13.96-4.68,29.02-4.69,36.71c-0.02,19.25,3.58,36.02,11.01,35.84c4.08-0.09,6.32-2.97,7.51-5.55    c0.84-1.82,1.84-5.83,2.13-7.89c0,0,1.93-10.96,0.79-30.13l-0.18-16.15l5.08,1.72c0.93,0.31,1.88,0.55,2.84,0.71    c2.97,0.5,10.05,1.78,17.3,0.71c9.57-1.41,19.93-6.44,24.96-19.43c0.63-1.63,1.05-3.01,1.31-4.17c0.95-4.28,0.85-22.61-0.35-23.08    C473.71,87.63,471.4,91.95,471.4,93.77z M415.27,178.09c-6.95-13.53-0.48-51.63-0.48-51.63s1.35,27.29,1.68,37.9    C416.81,174.97,415.27,178.09,415.27,178.09z M423.44,124.9l-0.8-29.28c4.03-15.7,19.37-28.5,22.64-9.06    c1.88,11.21-6.75,25.32-13.48,32.65C426.86,124.6,423.44,124.9,423.44,124.9z" />
	</g>
	<g
   id="o_copy"
   class="st5">
		<path
   id="o_3_"
   class="st3"
   d="M532.55,84.33c-0.56-0.32-3.04-4.33-3.16-3.73c-0.38,1.79-1.15,3.8-1.93,5    c-1.82,2.79-3.94,4.88-6.33,6.47c-3.9,2.61-8.36,2.76-10.12,2.7c-0.05-14.75-3.44-36.18-18.39-36.18c0,0-21.24,3.28-21.24,37.03    c0,3.31,0.15,6.31,0.42,9.06l1.93,10.55c4.47,15.52,14.09,17.4,17.76,17.4c4.73,0,10.27-4.26,14.66-12.43    c2.95-5.49,4.19-11.04,4.64-17.62c0.14,0,0.27,0.01,0.43,0.01c8.01,0,14.29-2.92,17.68-4.92c0,0,5.76-2.84,5.76-8.98    C534.64,86.24,533.69,84.97,532.55,84.33z M491.29,122.52c-6.8,0-8.97-16.63-8.97-28.87c0-16.27,7.06-26.71,12.16-26.71    c5.1,0,6.57,9.76,6.57,9.76s-6.57,1.38-6.57,11.16c0,9.78,7.77,13.15,7.77,13.15C502.24,106.38,498.08,122.52,491.29,122.52z" />
	</g>
	<path
   id="n_8_"
   class="st1"
   d="M587.01,103.91c-0.88,0.16-1.66,0.71-1.92,1.6c-1.64,5.68-7.49,18.52-13.39,18.59   c-3.15,0.04-8.22-6.97-8.07-22.99c0.06-7.24-0.11-14.48,3.59-23.37c1.47-3.52,1.58-8.05-1.69-10.01v0   c-3.48-2.07-7.45-1.17-9.72,2.19c-4.31,6.37-13.82,26.66-13.82,26.66s-1.07-16.7-0.44-28.15c0.21-3.81-3.02-6.93-6.83-6.65   l-0.11,0.01c-2.91,0.21-5.26,2.39-5.64,5.25c-0.49,3.63-0.91,11.44-0.59,20.08c0.46,12.24-0.38,31.06-0.87,40.43   c-0.16,3.12,2.32,5.72,5.44,5.72c2.59,0,4.82-1.81,5.33-4.35c1.64-8.12,5.05-26.44,14.19-42.71c0,0-2.05,15.98,0.46,27.7   c1.88,8.82,7.29,19.36,16.92,19.36c10.32,0,15.98-12.43,18.81-20.79C591.91,102.98,587.01,103.91,587.01,103.91z" />
</g>
<g
   id="New_Logo">
	<path
   id="O_3_"
   class="st6"
   d="M48.61,0C38.8,0,32.83,6.42,27.63,12.13c-0.26,0.29-0.48,0.61-0.73,0.9   c0.21-1.12-0.17-2.29-1.12-3.05c-1.31-1.05-3.21-0.9-4.33,0.36C15.77,16.74,0.16,36.9,0,65.67c-0.19,33.62,16.49,67.77,45.22,67.6   c34.58-0.2,54.42-53.49,41.21-94.71C79.46,16.79,63.62,0,48.61,0z M45.42,124.7c-21.91,0-33.33-27.79-33.66-56.16   c-0.15-13.05,2.29-25.69,5.83-36.08c-0.47,1.6-0.92,3.17-1.34,4.67c-2.24,8.12-2.02,16.97-1.07,22.07c0.44,2.36,2.76,4.2,5.16,4.09   c2.62-0.11,4.66-2.29,4.6-4.91c-0.17-6.83,0.11-18.07,2.39-25.71C29.77,24.6,37.65,8.37,48.76,8.37   c17.06,0,28.51,25.88,29.73,50.72C80.01,90.41,69.49,124.7,45.42,124.7z"
   style="fill:#fcfcfc;fill-opacity:0.98823529" />
	<path
   id="n_13_"
   class="st6"
   d="M166.01,91.06c-0.42,0.07-5.5-3.7-6.05,0.08c-0.79,5.42-2.33,12.42-3.27,15.67   c-1.27,4.41-6.78,17.22-12.68,17.29c-3.15,0.04-8.22-6.97-8.07-22.99c0.06-7.24-0.11-14.48,3.59-23.37   c1.47-3.52,1.58-8.05-1.69-10.01v0c-3.48-2.07-7.45-1.17-9.72,2.19c-4.31,6.37-13.82,26.66-13.82,26.66s-1.07-16.7-0.44-28.15   c0.21-3.81-3.02-6.93-6.83-6.65l-0.12,0.01c-2.91,0.21-5.26,2.39-5.64,5.25c-0.49,3.63-0.91,11.44-0.59,20.08   c0.46,12.24-0.38,31.06-0.87,40.43c-0.16,3.12,2.32,5.72,5.44,5.72c2.59,0,4.82-1.81,5.33-4.35c1.64-8.12,5.05-26.44,14.19-42.71   c0,0-2.05,15.98,0.46,27.7c1.88,8.82,7.29,19.36,16.92,19.36c10.32,0,15.98-12.43,18.81-20.79   C164.23,102.98,166.01,91.06,166.01,91.06z"
   style="fill:#fcfcfc;fill-opacity:0.98823529" />
	<g
   id="c_NEW_copy"
   style="fill:#fcfcfc;fill-opacity:0.98823529">
		<path
   id="c_3_"
   class="st6"
   d="M216.11,89.53c-0.39,0-3.15-6.7-4.1-0.67c-1.1,7.02-2.69,12.64-3.66,15.7    c-2.43,6.41-7.06,18.86-20.9,18.86c-15.89,0-18.64-22.89-16.18-32.67c2.47-9.83,6.9-24.3,13.39-24.3c1.75,0,2.37,1.96,2.5,4.17    c0.2,3.16-0.65,6.3-2.14,9.09c-0.67,1.26-1.43,2.77-2.03,4.23c-0.84,2.05-1.12,4.28-0.93,6.48l0,0.01    c0.45,2.43,1.72,4.23,4.16,4.74c4.72,0.96,8.22-4.01,9.23-9.27l0.73-4.63c0.6-3.8,0.55-7.71-0.46-11.41    c-1.56-5.7-5.06-10.62-11.48-10.76c0,0-4.64-0.36-9.47,3.37c-5.13,3.97-13.83,14.71-15.32,33.05c-0.13,1.57-0.17,3.11-0.15,4.63    c0.03,2.09,0.29,4.17,0.68,6.23l0.52,2.75c0.71,3.14,1.64,6.06,2.87,9.02c3.86,9.31,12.3,15.02,22.29,15.02    c14.24,0,23.37-12.4,26.44-20.61c0,0,1.76-4.01,1.78-7.07C213.89,103.61,218.25,89.53,216.11,89.53z"
   style="fill:#fcfcfc;fill-opacity:0.98823529" />
	</g>
	<path
   id="e_4_"
   class="st6"
   d="M259.07,102.97c-1.21-0.3-2.46,0.35-2.91,1.51c-1.15,2.98-3.54,8.95-7.04,13.4   c-2.79,3.54-7.57,6.32-11.53,6.02c-10.5-0.78-15.23-12.11-15-20.67c0,0,7.4,0.63,11.76-3.65c4.35-4.27,7.71-11.86,8.14-17.54   c1.8-23.79-10.94-23.04-10.94-23.04s-17.12-0.24-20.34,36.56c-0.14,1.62-0.23,3.17-0.27,4.66c-0.03,1.3,0.04,2.59,0.16,3.89   l0.54,5.57c0.27,2.76,0.79,5.5,1.77,8.1c5.61,14.96,18.72,15.4,18.72,15.4s9.3,1.09,16.75-4.77c5.38-4.23,10.85-11.15,12.04-22.64   C261.08,104.5,260.33,103.28,259.07,102.97z M224.35,83.38c0.85-5.51,2.63-10.25,4.34-13.63c1.07-2.11,3.74-1.46,4.45,0.8   c0.75,2.38,0.4,6.3,0.08,10.62c-0.79,10.8-5.68,15.6-8.65,15.09C221.62,95.75,222.99,92.22,224.35,83.38z"
   style="fill:#fcfcfc;fill-opacity:0.98823529" />
	<g
   id="U_copy_3"
   style="fill:#fcfcfc;fill-opacity:0.98823529">
		<path
   id="U_3_"
   class="st6"
   d="M417.97,86.93c-0.67-0.04-4.46-6.46-5.28-0.3c-0.85,6.39-2.3,11.55-3.12,13.66    c-1.45,3.78-3.99,9.6-6.69,13.84c-3.17,4.98-6.78,8.09-10.57,8.09c-9.96,0-19.01-37.49-11.72-72.81c4.23-20.51,6.69-34,8-41.55    c0.68-3.95-2.36-7.55-6.37-7.55c-3.3,0-5.77,2.52-6.42,5.76c-2.48,12.23-6.1,42.07-10.07,68.32c-2.08,13.76-6.8,25.64-11.54,34.42    c-4.75,8.78-9.52,14.45-15.26,14.42c-13.89-0.07-14.43-32.38-9.66-62.64c2.82-17.86,9-34.86,11.3-44.5c1-4.2-1.9-8.32-6.2-8.81    c-3.69-0.42-7.1,2.03-7.86,5.67c-2.8,13.44-11.09,47.43-11.11,77.92c-0.01,24.21,7.5,42.06,21.8,42.06    c12.29,0,16.11-6.23,21.12-13.01c5.1-6.89,10.48-22.01,10.48-22.01s2.15,15.97,9.34,26.03c3.08,4.31,7.59,7.31,12.41,7.88    c3.83,0.46,9.81-0.12,16.7-9.39c0.79-1.06,1.55-2.23,2.29-3.45c2.91-4.22,4.78-7.6,5.9-10.31    C419.72,98.47,417.97,86.93,417.97,86.93z"
   style="fill:#fcfcfc;fill-opacity:0.98823529" />
	</g>
	<g
   id="p_copy_2"
   style="fill:#fcfcfc;fill-opacity:0.98823529">
		<path
   id="p_4_"
   class="st6"
   d="M471.4,93.77c-0.02,5.59-1.48,11.43-1.72,12.38c-2.08,8.17-12.81,26.64-34.29,20.95    c0,0,14.93-10.52,19.63-29.31c0,0,2.98-9.52,1.34-17.94c-1.18-6.03-6.52-14.86-13.28-14.86c-14.01,0-18.12,14.09-18.12,14.09    l1.3-18.77c0.03-2.12-0.94-4.23-2.76-5.3c-0.9-0.53-1.95-0.83-3.06-0.83c-2.98,0-5.43,2.18-5.95,5.12    c-1.07,5.95-1.55,19.68-1.72,25.94c-0.05,1.91-0.27,3.81-0.65,5.69c-0.34,1.68-0.8,3.96-1.33,6.67l-3.9,21.09    c-2.43,13.96-4.68,29.02-4.69,36.71c-0.02,19.25,3.58,36.02,11.01,35.84c4.08-0.09,6.32-2.97,7.51-5.55    c0.84-1.82,1.84-5.83,2.13-7.89c0,0,1.93-10.96,0.79-30.13l-0.18-16.15l5.08,1.72c0.93,0.31,1.88,0.55,2.84,0.71    c2.97,0.5,10.05,1.78,17.3,0.71c9.57-1.41,19.93-6.44,24.96-19.43c0.63-1.63,1.05-3.01,1.31-4.17c0.95-4.28,0.85-22.61-0.35-23.08    C473.71,87.63,471.4,91.95,471.4,93.77z M415.27,178.09c-6.95-13.53-0.48-51.63-0.48-51.63s1.35,27.29,1.68,37.9    C416.81,174.97,415.27,178.09,415.27,178.09z M423.44,124.9l-0.8-29.28c4.03-15.7,19.37-28.5,22.64-9.06    c1.88,11.21-6.75,25.32-13.48,32.65C426.86,124.6,423.44,124.9,423.44,124.9z"
   style="fill:#fcfcfc;fill-opacity:0.98823529" />
	</g>
	<g
   id="o_copy_2"
   style="fill:#fcfcfc;fill-opacity:0.98823529">
		<path
   id="o_4_"
   class="st6"
   d="M532.55,84.33c-0.56-0.32-3.04-4.33-3.16-3.73c-0.38,1.79-1.15,3.8-1.93,5    c-1.82,2.79-3.94,4.88-6.33,6.47c-3.9,2.61-8.36,2.76-10.12,2.7c-0.05-14.75-3.44-36.18-18.39-36.18c0,0-21.24,3.28-21.24,37.03    c0,3.31,0.15,6.31,0.42,9.06l1.93,10.55c4.47,15.52,14.09,17.4,17.76,17.4c4.73,0,10.27-4.26,14.66-12.43    c2.95-5.49,4.19-11.04,4.64-17.62c0.14,0,0.27,0.01,0.43,0.01c8.01,0,14.29-2.92,17.68-4.92c0,0,5.76-2.84,5.76-8.98    C534.64,86.24,533.69,84.97,532.55,84.33z M491.29,122.52c-6.8,0-8.97-16.63-8.97-28.87c0-16.27,7.06-26.71,12.16-26.71    c5.1,0,6.57,9.76,6.57,9.76s-6.57,1.38-6.57,11.16c0,9.78,7.77,13.15,7.77,13.15C502.24,106.38,498.08,122.52,491.29,122.52z"
   style="fill:#fcfcfc;fill-opacity:0.98823529" />
	</g>
	<path
   id="n_10_"
   class="st6"
   d="M587.01,103.91c-0.88,0.16-1.66,0.71-1.92,1.6c-1.64,5.68-7.49,18.52-13.39,18.59   c-3.15,0.04-8.22-6.97-8.07-22.99c0.06-7.24-0.11-14.48,3.59-23.37c1.47-3.52,1.58-8.05-1.69-10.01v0   c-3.48-2.07-7.45-1.17-9.72,2.19c-4.31,6.37-13.82,26.66-13.82,26.66s-1.07-16.7-0.44-28.15c0.21-3.81-3.02-6.93-6.83-6.65   l-0.11,0.01c-2.91,0.21-5.26,2.39-5.64,5.25c-0.49,3.63-0.91,11.44-0.59,20.08c0.46,12.24-0.38,31.06-0.87,40.43   c-0.16,3.12,2.32,5.72,5.44,5.72c2.59,0,4.82-1.81,5.33-4.35c1.64-8.12,5.05-26.44,14.19-42.71c0,0-2.05,15.98,0.46,27.7   c1.88,8.82,7.29,19.36,16.92,19.36c10.32,0,15.98-12.43,18.81-20.79C591.91,102.98,587.01,103.91,587.01,103.91z"
   style="fill:#fcfcfc;fill-opacity:0.98823529" />
</g>
</svg>